<svg data-v-fde0c5aa="" xmlns="http://www.w3.org/2000/svg" viewBox="0 0 300 300" class="iconAboveSlogan"><!----><defs data-v-fde0c5aa=""><linearGradient data-v-fde0c5aa="" gradientTransform="rotate(25)" id="de553b1b-be3f-4bfb-b981-593bb51e0b3f" x1="0%" y1="0%" x2="100%" y2="0%"><stop data-v-fde0c5aa="" offset="0%" stop-color="#3C1143" stop-opacity="1"></stop><stop data-v-fde0c5aa="" offset="100%" stop-color="#C25178" stop-opacity="1"></stop></linearGradient></defs><rect data-v-fde0c5aa="" fill="url(#de553b1b-be3f-4bfb-b981-593bb51e0b3f)" x="0" y="0" width="300px" height="300px" class="logo-background-square"></rect><defs data-v-fde0c5aa=""><!----></defs><g data-v-fde0c5aa="" id="a26a6a54-8c30-43f4-a6c2-92529a19c220" fill="#ffffff" transform="matrix(7.765440877106133,0,0,7.765440877106133,67.88046466859929,135.5651185815105)"><path d="M5.96 6.82L0.67 9.23L0.67 10.11L5.96 12.50L5.96 11.48L1.82 9.66L5.96 7.84ZM14.31 4.31L6.85 4.31L6.85 5.67L9.81 5.67L9.81 14L11.34 14L11.34 5.67L14.31 5.67ZM15.19 6.82L15.19 7.84L19.35 9.66L15.19 11.48L15.19 12.50L20.48 10.11L20.48 9.23Z"></path></g><defs data-v-fde0c5aa=""><!----></defs><g data-v-fde0c5aa="" id="820cf8e4-b3df-40c8-8056-156a74e53981" stroke="none" fill="#ffffff" transform="matrix(3.145087401712079,0,0,3.145087401712079,70.6808956388397,15.795407044487376)"><path d="M33.771 34H15.199l9.287-19.948z"></path><path d="M41.891 34H28.852l6.808-15.611zM20.12 34H7.659l5.652-15.611z"></path><path d="M42.711 34H37.76l8.42-9.251zM12.865 34H7.441l-3.47-9.251z"></path><circle cx="24.498" cy="10.009" r="2.313"></circle><circle cx="3.244" cy="21.284" r="2.024"></circle><circle cx="47.196" cy="21.433" r="2.024"></circle><g><path d="M9.836 43h30.189l2.041-7H7.796z"></path></g></g><defs data-v-fde0c5aa=""><!----></defs><g data-v-fde0c5aa="" id="85ffe6eb-5b47-4bdc-97f9-78da56b35961" fill="#ffffff" transform="matrix(0.5853332370957876,0,0,0.5853332370957876,92.00810936726967,252.5955347740252)"><path d="M0.76 3.64L0.52 3.64L0.52 3.08L3.62 3.08L3.61 3.64L3.30 3.64L3.30 3.64Q2.47 3.64 2.47 3.94L2.47 3.94L2.47 3.94Q2.47 4.03 2.51 4.09L2.51 4.09L4.93 10.76L7.24 4.85L7.14 4.57L7.14 4.57Q7.11 4.52 7.09 4.44L7.09 4.44L7.09 4.44Q7.07 4.36 7.05 4.31L7.05 4.31L7.05 4.31Q7.03 4.25 7.01 4.22L7.01 4.22L7.01 4.22Q6.99 4.16 6.89 3.96L6.89 3.96L6.89 3.96Q6.81 3.80 6.69 3.71L6.69 3.71L6.69 3.71Q6.61 3.64 6.44 3.64L6.44 3.64L5.76 3.64L5.76 3.08L9.08 3.08L9.08 3.64L8.35 3.64L8.35 3.64Q8.11 3.64 8.05 3.68L8.05 3.68L8.05 3.68Q7.98 3.72 7.98 3.86L7.98 3.86L7.98 3.86Q7.98 4.00 8.23 4.76L8.23 4.76L10.27 10.72L12.77 4.18L12.77 4.18Q12.82 4.01 12.82 3.94L12.82 3.94L12.82 3.94Q12.82 3.75 12.65 3.69L12.65 3.69L12.65 3.69Q12.50 3.64 12.14 3.64L12.14 3.64L11.77 3.64L11.77 3.08L14.17 3.08L14.18 3.64L14.01 3.64L14.01 3.64Q13.67 3.64 13.57 3.77L13.57 3.77L13.57 3.77Q13.45 3.96 13.20 4.60L13.20 4.60L10.11 12.64L9.87 12.64L7.49 5.64L4.77 12.63L4.55 12.63L1.58 4.52L1.58 4.52Q1.37 3.96 1.20 3.79L1.20 3.79L1.20 3.79Q1.05 3.63 0.76 3.64L0.76 3.64ZM22.30 7.83L22.30 7.83L22.30 7.83Q22.30 6.62 22.70 5.68L22.70 5.68L22.70 5.68Q23.12 4.72 23.81 4.12L23.81 4.12L23.81 4.12Q24.50 3.51 25.36 3.19L25.36 3.19L25.36 3.19Q26.20 2.88 27.15 2.88L27.15 2.88L27.15 2.88Q28.41 2.88 29.46 3.40L29.46 3.40L29.46 3.40Q30.54 3.93 31.25 5.07L31.25 5.07L31.25 5.07Q31.95 6.17 31.96 7.75L31.96 7.75L31.96 7.75Q31.96 8.70 31.65 9.54L31.65 9.54L31.65 9.54Q31.34 10.38 30.74 11.10L30.74 11.10L30.74 11.10Q30.13 11.81 29.20 12.22L29.20 12.22L29.20 12.22Q28.23 12.63 27.04 12.64L27.04 12.64L27.04 12.64Q25.91 12.64 24.97 12.23L24.97 12.23L24.97 12.23Q24.04 11.83 23.47 11.14L23.47 11.14L23.47 11.14Q22.90 10.45 22.61 9.60L22.61 9.60L22.61 9.60Q22.30 8.72 22.30 7.83ZM23.56 7.38L23.56 7.38L23.56 7.38Q23.56 8.52 23.99 9.60L23.99 9.60L23.99 9.60Q24.39 10.64 25.32 11.33L25.32 11.33L25.32 11.33Q26.23 12.03 27.42 12.04L27.42 12.04L27.42 12.04Q28.79 12.04 29.73 11.01L29.73 11.01L29.73 11.01Q30.68 9.97 30.68 8.10L30.68 8.10L30.68 8.10Q30.68 5.99 29.52 4.72L29.52 4.72L29.52 4.72Q28.37 3.46 26.86 3.45L26.86 3.45L26.86 3.45Q26.34 3.45 25.80 3.65L25.80 3.65L25.80 3.65Q25.25 3.85 24.75 4.25L24.75 4.25L24.75 4.25Q24.20 4.68 23.88 5.48L23.88 5.48L23.88 5.48Q23.56 6.27 23.56 7.38ZM43.24 12.41L40.22 12.41L40.22 11.87L40.35 11.87L40.35 11.87Q40.94 11.87 41.06 11.77L41.06 11.77L41.06 11.77Q41.18 11.68 41.19 11.21L41.19 11.21L41.32 4.38L41.32 4.38Q41.32 4.35 41.33 4.28L41.33 4.28L41.33 4.28Q41.34 4.21 41.34 4.17L41.34 4.17L41.34 4.01L41.34 4.01Q41.34 3.76 41.26 3.71L41.26 3.71L41.26 3.71Q41.17 3.64 40.94 3.64L40.94 3.64L40.23 3.64L40.22 3.08L42.33 3.08L45.52 10.55L48.66 3.08L50.89 3.08L50.89 3.64L50.42 3.64L50.42 3.64Q49.97 3.64 49.85 3.71L49.85 3.71L49.85 3.71Q49.69 3.79 49.69 4.08L49.69 4.08L49.69 11.22L49.69 11.22Q49.69 11.68 49.80 11.77L49.80 11.77L49.80 11.77Q49.92 11.87 50.54 11.87L50.54 11.87L50.83 11.87L50.84 12.41L47.44 12.41L47.42 11.87L47.70 11.87L47.70 11.87Q48.32 11.87 48.43 11.77L48.43 11.77L48.43 11.77Q48.56 11.66 48.56 11.25L48.56 11.25L48.56 4.83L46.40 9.91L45.55 12.02L45.55 12.02Q45.41 12.37 45.37 12.44L45.37 12.44L45.37 12.44Q45.32 12.51 45.25 12.51L45.25 12.51L45.25 12.51Q45.16 12.51 44.71 11.52L44.71 11.52L41.90 5.01L41.84 11.39L41.84 11.39Q41.84 11.74 42.03 11.80L42.03 11.80L42.03 11.80Q42.27 11.87 43.24 11.87L43.24 11.87L43.24 12.41ZM58.58 3.64L58.56 3.08L65.78 3.08L65.78 3.08Q65.79 4.14 65.84 5.28L65.84 5.28L65.30 5.30L65.30 5.30Q65.28 4.66 65.23 4.25L65.23 4.25L65.23 4.25Q65.19 3.89 65.13 3.80L65.13 3.80L65.13 3.80Q65.08 3.71 64.96 3.69L64.96 3.69L64.96 3.69Q64.87 3.68 64.28 3.68L64.28 3.68L61.90 3.68L61.90 3.68Q61.35 3.68 61.21 3.77L61.21 3.77L61.21 3.77Q61.09 3.86 61.09 4.33L61.09 4.33L61.09 6.28L61.09 6.28Q61.09 6.69 61.14 6.76L61.14 6.76L61.14 6.76Q61.21 6.84 61.55 6.84L61.55 6.84L63.66 6.84L63.66 6.84Q64.03 6.84 64.11 6.73L64.11 6.73L64.11 6.73Q64.19 6.63 64.20 6.14L64.20 6.14L64.20 5.61L64.71 5.63L64.71 8.97L64.20 8.97L64.20 8.24L64.20 8.24Q64.20 7.66 64.12 7.57L64.12 7.57L64.12 7.57Q64.04 7.46 63.69 7.46L63.69 7.46L61.59 7.46L61.59 7.46Q61.26 7.46 61.17 7.54L61.17 7.54L61.17 7.54Q61.09 7.63 61.09 7.89L61.09 7.89L61.09 11.20L61.09 11.20Q61.09 11.57 61.17 11.67L61.17 11.67L61.17 11.67Q61.26 11.77 61.53 11.77L61.53 11.77L61.53 11.77Q64.45 11.75 64.98 11.69L64.98 11.69L64.98 11.69Q65.50 11.63 65.58 11.38L65.58 11.38L65.58 11.36L65.59 11.35L65.82 10.17L66.29 10.25L65.95 12.41L58.84 12.41L58.84 11.87L59.21 11.87L59.21 11.87Q59.77 11.87 59.86 11.80L59.86 11.80L59.86 11.80Q59.95 11.72 59.95 11.33L59.95 11.33L59.95 4.24L59.95 4.24Q59.95 3.82 59.80 3.73L59.80 3.73L59.80 3.73Q59.63 3.64 58.97 3.64L58.97 3.64L58.58 3.64ZM74.18 3.64L74.17 3.08L76.34 3.08L82.08 10.48L82.08 4.14L82.08 4.14Q82.08 3.81 81.93 3.72L81.93 3.72L81.93 3.72Q81.77 3.64 81.31 3.64L81.31 3.64L80.82 3.64L80.85 3.08L83.83 3.08L83.83 3.64L83.51 3.64L83.51 3.64Q83.04 3.64 82.89 3.75L82.89 3.75L82.89 3.75Q82.74 3.86 82.74 4.25L82.74 4.25L82.74 12.32L82.74 12.47L82.74 12.47Q82.74 12.52 82.73 12.57L82.73 12.57L82.73 12.57Q82.71 12.61 82.68 12.64L82.68 12.64L82.68 12.64Q82.67 12.65 82.61 12.65L82.61 12.65L82.42 12.65L82.36 12.65L82.33 12.65L82.30 12.64L82.30 12.64Q82.28 12.64 82.26 12.63L82.26 12.63L82.26 12.63Q82.25 12.61 82.25 12.60L82.25 12.60L82.25 12.60Q82.25 12.58 82.24 12.57L82.24 12.57L82.24 12.57Q82.21 12.54 82.18 12.50L82.18 12.50L82.18 12.50Q82.17 12.48 82.15 12.45L82.15 12.45L82.15 12.45Q82.13 12.41 82.11 12.40L82.11 12.40L76.01 4.56L76.08 11.22L76.08 11.22Q76.08 11.67 76.24 11.77L76.24 11.77L76.24 11.77Q76.40 11.87 77.11 11.87L77.11 11.87L77.35 11.87L77.35 12.41L74.41 12.41L74.41 11.87L74.83 11.87L74.83 11.87Q75.21 11.87 75.32 11.76L75.32 11.76L75.32 11.76Q75.41 11.66 75.42 11.25L75.42 11.25L75.42 3.80L75.28 3.64L74.18 3.64ZM101.73 3.64L101.14 3.64L101.15 3.08L104.67 3.08L104.67 3.64L104.43 3.64L104.43 3.64Q103.89 3.64 103.71 3.73L103.71 3.73L103.71 3.73Q103.58 3.81 103.58 4.28L103.58 4.28L103.58 11.22L103.58 11.22Q103.58 11.68 103.69 11.77L103.69 11.77L103.69 11.77Q103.80 11.87 104.33 11.87L104.33 11.87L104.88 11.87L104.89 12.41L101.31 12.41L101.29 11.87L101.66 11.87L101.66 11.87Q102.22 11.87 102.33 11.77L102.33 11.77L102.33 11.77Q102.44 11.67 102.44 11.25L102.44 11.25L102.44 4.14L102.44 4.14Q102.44 3.77 102.34 3.71L102.34 3.71L102.34 3.71Q102.23 3.64 101.73 3.64L101.73 3.64ZM112.64 3.64L112.63 3.08L114.80 3.08L120.54 10.48L120.54 4.14L120.54 4.14Q120.54 3.81 120.38 3.72L120.38 3.72L120.38 3.72Q120.23 3.64 119.77 3.64L119.77 3.64L119.28 3.64L119.31 3.08L122.29 3.08L122.29 3.64L121.97 3.64L121.97 3.64Q121.50 3.64 121.35 3.75L121.35 3.75L121.35 3.75Q121.20 3.86 121.20 4.25L121.20 4.25L121.20 12.32L121.20 12.47L121.20 12.47Q121.20 12.52 121.19 12.57L121.19 12.57L121.19 12.57Q121.17 12.61 121.14 12.64L121.14 12.64L121.14 12.64Q121.13 12.65 121.07 12.65L121.07 12.65L120.88 12.65L120.82 12.65L120.79 12.65L120.76 12.64L120.76 12.64Q120.74 12.64 120.72 12.63L120.72 12.63L120.72 12.63Q120.71 12.61 120.71 12.60L120.71 12.60L120.71 12.60Q120.71 12.58 120.70 12.57L120.70 12.57L120.70 12.57Q120.67 12.54 120.64 12.50L120.64 12.50L120.64 12.50Q120.63 12.48 120.61 12.45L120.61 12.45L120.61 12.45Q120.59 12.41 120.57 12.40L120.57 12.40L114.47 4.56L114.54 11.22L114.54 11.22Q114.54 11.67 114.70 11.77L114.70 11.77L114.70 11.77Q114.86 11.87 115.57 11.87L115.57 11.87L115.81 11.87L115.81 12.41L112.87 12.41L112.87 11.87L113.29 11.87L113.29 11.87Q113.67 11.87 113.78 11.76L113.78 11.76L113.78 11.76Q113.87 11.66 113.88 11.25L113.88 11.25L113.88 3.80L113.74 3.64L112.64 3.64ZM139.88 5.35L139.38 5.33L139.38 5.33Q139.50 4.17 139.58 3.08L139.58 3.08L147.66 3.08L147.66 3.08Q147.58 4.13 147.55 4.53L147.55 4.53L147.55 4.53Q147.51 5.26 147.49 5.32L147.49 5.32L146.99 5.30L146.99 5.30Q147.08 4.34 147.08 4.16L147.08 4.16L147.08 4.16Q147.08 3.88 146.93 3.79L146.93 3.79L146.93 3.79Q146.76 3.69 146.36 3.69L146.36 3.69L144.75 3.69L144.75 3.69Q144.25 3.69 144.12 3.79L144.12 3.79L144.12 3.79Q144.03 3.87 144.02 4.36L144.02 4.36L144.02 11.22L144.02 11.22Q144.02 11.66 144.16 11.76L144.16 11.76L144.16 11.76Q144.32 11.87 144.83 11.87L144.83 11.87L145.39 11.87L145.41 12.41L141.72 12.40L141.72 11.87L141.93 11.87L141.93 11.87Q142.60 11.87 142.75 11.79L142.75 11.79L142.75 11.79Q142.89 11.70 142.89 11.28L142.89 11.28L142.89 4.48L142.89 4.48Q142.89 3.92 142.79 3.80L142.79 3.80L142.79 3.80Q142.69 3.69 142.27 3.69L142.27 3.69L140.80 3.69L140.80 3.69Q140.62 3.69 140.55 3.71L140.55 3.71L140.55 3.71Q140.48 3.72 140.37 3.72L140.37 3.72L140.37 3.72Q140.34 3.72 140.23 3.79L140.23 3.79L140.23 3.79Q140.14 3.84 140.12 3.86L140.12 3.86L140.12 3.86Q140.09 3.88 140.05 3.99L140.05 3.99L140.05 3.99Q140.02 4.05 139.99 4.14L139.99 4.14L139.99 4.14Q139.97 4.21 139.95 4.36L139.95 4.36L139.95 4.36Q139.92 4.59 139.92 4.61L139.92 4.61L139.92 4.61Q139.92 4.80 139.90 4.95L139.90 4.95L139.90 4.95Q139.90 5.02 139.90 5.15L139.90 5.15L139.90 5.15Q139.89 5.29 139.88 5.35L139.88 5.35ZM155.42 3.64L155.40 3.08L162.61 3.08L162.61 3.08Q162.63 4.14 162.68 5.28L162.68 5.28L162.13 5.30L162.13 5.30Q162.12 4.66 162.07 4.25L162.07 4.25L162.07 4.25Q162.03 3.89 161.97 3.80L161.97 3.80L161.97 3.80Q161.92 3.71 161.80 3.69L161.80 3.69L161.80 3.69Q161.70 3.68 161.12 3.68L161.12 3.68L158.74 3.68L158.74 3.68Q158.19 3.68 158.05 3.77L158.05 3.77L158.05 3.77Q157.92 3.86 157.92 4.33L157.92 4.33L157.92 6.28L157.92 6.28Q157.92 6.69 157.98 6.76L157.98 6.76L157.98 6.76Q158.05 6.84 158.39 6.84L158.39 6.84L160.50 6.84L160.50 6.84Q160.86 6.84 160.95 6.73L160.95 6.73L160.95 6.73Q161.03 6.63 161.03 6.14L161.03 6.14L161.03 5.61L161.55 5.63L161.55 8.97L161.03 8.97L161.03 8.24L161.03 8.24Q161.03 7.66 160.96 7.57L160.96 7.57L160.96 7.57Q160.88 7.46 160.53 7.46L160.53 7.46L158.43 7.46L158.43 7.46Q158.09 7.46 158.01 7.54L158.01 7.54L158.01 7.54Q157.92 7.63 157.92 7.89L157.92 7.89L157.92 11.20L157.92 11.20Q157.92 11.57 158.01 11.67L158.01 11.67L158.01 11.67Q158.09 11.77 158.37 11.77L158.37 11.77L158.37 11.77Q161.29 11.75 161.81 11.69L161.81 11.69L161.81 11.69Q162.33 11.63 162.42 11.38L162.42 11.38L162.42 11.36L162.43 11.35L162.65 10.17L163.13 10.25L162.78 12.41L155.68 12.41L155.68 11.87L156.05 11.87L156.05 11.87Q156.61 11.87 156.69 11.80L156.69 11.80L156.69 11.80Q156.79 11.72 156.79 11.33L156.79 11.33L156.79 4.24L156.79 4.24Q156.79 3.82 156.64 3.73L156.64 3.73L156.64 3.73Q156.47 3.64 155.81 3.64L155.81 3.64L155.42 3.64ZM171.39 8.02L171.39 8.02L171.39 8.02Q171.39 6.86 171.86 5.83L171.86 5.83L171.86 5.83Q172.33 4.85 173.08 4.27L173.08 4.27L173.08 4.27Q173.82 3.69 174.72 3.37L174.72 3.37L174.72 3.37Q175.62 3.05 176.46 3.05L176.46 3.05L176.46 3.05Q177.32 3.05 177.99 3.16L177.99 3.16L177.99 3.16Q178.62 3.26 178.92 3.37L178.92 3.37L178.92 3.37Q179.22 3.48 179.26 3.48L179.26 3.48L179.26 3.48Q179.43 3.48 179.45 3.41L179.45 3.41L179.45 3.41Q179.48 3.33 179.48 3.09L179.48 3.09L179.48 2.97L180.01 2.97L180.01 2.97Q180.05 4.30 180.18 5.64L180.18 5.64L179.68 5.65L179.68 5.65Q179.65 5.40 179.63 5.26L179.63 5.26L179.63 5.26Q179.63 5.20 179.63 5.13L179.63 5.13L179.63 5.13Q179.62 5.07 179.61 5.02L179.61 5.02L179.61 5.02Q179.61 4.98 179.61 4.95L179.61 4.95L179.61 4.95Q179.58 4.84 179.58 4.74L179.58 4.74L179.58 4.74Q179.58 4.68 179.54 4.59L179.54 4.59L179.54 4.59Q179.54 4.57 179.51 4.55L179.51 4.55L179.51 4.55Q179.48 4.52 179.48 4.50L179.48 4.50L179.48 4.50Q179.45 4.44 179.38 4.41L179.38 4.41L179.38 4.41Q179.34 4.38 179.31 4.37L179.31 4.37L179.31 4.37Q179.29 4.36 179.26 4.35L179.26 4.35L179.26 4.35Q179.25 4.35 179.22 4.33L179.22 4.33L179.22 4.33Q179.20 4.31 179.16 4.29L179.16 4.29L179.16 4.29Q179.12 4.27 179.07 4.25L179.07 4.25L179.07 4.25Q178.85 4.16 178.82 4.14L178.82 4.14L178.82 4.14Q178.47 3.96 177.83 3.83L177.83 3.83L177.83 3.83Q177.16 3.71 176.50 3.71L176.50 3.71L176.50 3.71Q174.77 3.71 173.68 4.84L173.68 4.84L173.68 4.84Q172.57 5.99 172.58 7.62L172.58 7.62L172.58 7.62Q172.58 9.35 173.80 10.69L173.80 10.69L173.80 10.69Q175 12.02 176.82 12.02L176.82 12.02L176.82 12.02Q177.82 12.02 178.77 11.49L178.77 11.49L178.77 11.49Q179.72 10.94 179.74 10.58L179.74 10.58L179.79 9.41L180.28 9.41L180.20 11.45L180.20 11.45Q180.13 11.49 180.00 11.57L180.00 11.57L180.00 11.57Q179.94 11.60 179.48 11.85L179.48 11.85L179.48 11.85Q179.10 12.05 178.66 12.23L178.66 12.23L178.66 12.23Q178.29 12.39 177.65 12.51L177.65 12.51L177.65 12.51Q177.04 12.63 176.47 12.64L176.47 12.64L176.47 12.64Q174.09 12.64 172.73 11.39L172.73 11.39L172.73 11.39Q171.39 10.14 171.39 8.02ZM188.68 3.64L188.31 3.64L188.31 3.08L191.80 3.08L191.80 3.64L191.43 3.64L191.43 3.64Q190.93 3.64 190.78 3.75L190.78 3.75L190.78 3.75Q190.64 3.84 190.63 4.25L190.63 4.25L190.63 6.91L195.19 6.91L195.19 4.14L195.19 4.14Q195.19 3.77 195.09 3.71L195.09 3.71L195.09 3.71Q194.98 3.64 194.46 3.64L194.46 3.64L193.87 3.64L193.85 3.08L197.41 3.08L197.41 3.64L197.02 3.64L197.02 3.64Q196.54 3.64 196.43 3.74L196.43 3.74L196.43 3.74Q196.32 3.83 196.32 4.22L196.32 4.22L196.32 11.29L196.32 11.29Q196.32 11.67 196.46 11.77L196.46 11.77L196.46 11.77Q196.62 11.87 197.16 11.87L197.16 11.87L197.63 11.87L197.62 12.41L194.13 12.41L194.12 11.87L194.53 11.87L194.53 11.87Q195.00 11.87 195.09 11.77L195.09 11.77L195.09 11.77Q195.19 11.67 195.19 11.25L195.19 11.25L195.19 7.58L190.63 7.58L190.63 11.25L190.63 11.25Q190.63 11.67 190.79 11.77L190.79 11.77L190.79 11.77Q190.94 11.87 191.65 11.87L191.65 11.87L192.05 11.87L192.02 12.41L188.44 12.41L188.43 11.87L188.79 11.87L188.79 11.87Q189.33 11.87 189.40 11.80L189.40 11.80L189.40 11.80Q189.50 11.70 189.50 11.25L189.50 11.25L189.50 4.09L189.50 4.09Q189.50 3.76 189.36 3.71L189.36 3.71L189.36 3.71Q189.19 3.64 188.68 3.64L188.68 3.64Z"></path></g></svg>