<svg data-v-423bf9ae="" xmlns="http://www.w3.org/2000/svg" viewBox="0 0 147.27273855775468 181" class="iconAboveSlogan"><!----><!----><!----><g data-v-423bf9ae="" id="34709b98-714a-4026-9be4-f73a4242f13e" fill="black" transform="matrix(6.198347522687943,0,0,6.198347522687943,-3.9049586026238075,77.89669182771001)"><path d="M0.63 8.41L0.63 9.35L7.90 12.29L7.90 11.33L1.72 8.89L7.90 6.43L7.90 5.46ZM8.86 4.05L8.86 5.38L11.80 5.38L11.80 13.73L13.23 13.73L13.23 5.38L16.14 5.38L16.14 4.05ZM24.39 9.34L24.39 8.40L17.12 5.46L17.12 6.43L23.28 8.88L17.12 11.33L17.12 12.29Z"></path></g><!----><g data-v-423bf9ae="" id="41093e91-b038-4004-b578-1b224c19db0a" transform="matrix(2.5492861381615373,0,0,2.5492861381615373,9.927003551240603,-18.923306272952686)" stroke="none" fill="black"><path d="M33.771 34H15.199l9.287-19.948z"></path><path d="M41.891 34H28.852l6.808-15.611zM20.12 34H7.659l5.652-15.611z"></path><path d="M42.711 34H37.76l8.42-9.251zM12.865 34H7.441l-3.47-9.251z"></path><circle cx="24.498" cy="10.009" r="2.313"></circle><circle cx="3.244" cy="21.284" r="2.024"></circle><circle cx="47.196" cy="21.433" r="2.024"></circle><g><path d="M9.836 43h30.189l2.041-7H7.796z"></path></g></g><!----><g data-v-423bf9ae="" id="7e84b682-fedd-4eec-b4e7-ba2455241737" fill="black" transform="matrix(0.5496618840296141,0,0,0.5496618840296141,18.81775685311009,203.80776428954977)"><path d="M0.10 3.51C0.10 3.75 0.21 3.77 0.38 3.77L0.88 3.77C0.97 3.77 3.11 10.99 3.14 11.07C3.49 12.14 3.60 12.99 3.91 12.99C4.13 12.99 4.23 12.67 4.51 12.26C4.66 12.05 4.76 12.01 4.90 11.66L6.89 6.45C6.96 6.29 6.99 6.20 7.01 6.20C7.04 6.20 7.07 6.29 7.11 6.45C7.71 8.51 8.39 11.03 8.40 11.07C8.75 12.14 8.86 12.99 9.17 12.99C9.39 12.99 9.49 12.67 9.77 12.26C9.93 12.05 10.02 12.01 10.16 11.66L13.26 4.06C13.36 3.81 13.36 3.77 13.72 3.77C13.96 3.77 14.01 3.71 14.01 3.53C14.01 3.32 13.97 3.26 13.78 3.26C13.64 3.26 13.33 3.30 12.82 3.30C12.08 3.30 11.58 3.26 11.38 3.26C11.20 3.26 11.10 3.28 11.10 3.51C11.10 3.75 11.21 3.77 11.38 3.77L12.29 3.77C12.36 3.77 12.38 3.81 12.38 3.95C12.38 4.63 10.78 8.72 10.07 10.63C9.93 10.99 9.86 11.17 9.81 11.17C9.76 11.17 9.70 10.99 9.58 10.60C9.49 10.30 8.57 7.18 8.04 5.22C7.99 5.05 7.78 4.17 7.78 3.85C7.78 3.81 7.78 3.79 7.80 3.77L8.68 3.77C8.86 3.77 8.96 3.75 8.96 3.56C8.96 3.32 8.92 3.26 8.72 3.26C8.40 3.26 7.46 3.30 7.04 3.30C6.62 3.30 5.71 3.26 5.49 3.26C5.31 3.26 5.21 3.28 5.21 3.51C5.21 3.75 5.32 3.77 5.49 3.77L6.29 3.77C6.33 3.77 6.51 4.27 6.66 4.83C6.72 5.05 6.76 5.15 6.76 5.25C6.76 5.31 6.76 5.38 6.72 5.49L4.72 10.60C4.62 10.82 4.59 10.95 4.55 10.95C4.51 10.95 4.48 10.84 4.40 10.60C4.31 10.32 3.30 7.27 2.70 5.22C2.66 5.08 2.34 3.96 2.32 3.85C2.34 3.77 2.38 3.77 2.42 3.77L3.12 3.77C3.35 3.77 3.42 3.75 3.42 3.56C3.42 3.32 3.37 3.26 3.18 3.26C2.86 3.26 2.14 3.30 1.72 3.30C1.30 3.30 0.60 3.26 0.38 3.26C0.20 3.26 0.10 3.28 0.10 3.51ZM21.14 8.15C21.14 11.17 23.48 12.80 25.73 12.80C28.52 12.80 30.49 10.89 30.49 8.06C30.49 5.33 28.74 3.11 25.94 3.11C23.34 3.11 21.14 5.10 21.14 8.15ZM22.54 7.77C22.54 5.64 23.83 3.58 25.80 3.58C28.04 3.58 29.12 5.81 29.12 7.94C29.12 10.08 28.01 12.32 25.75 12.32C23.76 12.32 22.54 10.28 22.54 7.77ZM38.53 12.39C38.53 12.63 38.56 12.68 38.75 12.68C38.99 12.68 39.49 12.64 39.91 12.64C40.33 12.64 40.82 12.68 41.15 12.68C41.31 12.68 41.34 12.61 41.34 12.40C41.34 12.24 41.31 12.18 41.15 12.18L40.18 12.18C40.12 12.18 40.11 11.54 40.11 10.79C40.11 8.96 40.15 6.13 40.22 4.28C40.25 3.88 40.28 3.91 40.42 4.27L43.68 12.32C43.78 12.54 43.85 12.74 43.96 12.74C44.06 12.74 44.13 12.63 44.21 12.45C44.55 11.79 44.73 11.75 45.00 11.09L47.59 4.47C47.71 4.16 47.75 4.02 47.77 4.47C47.80 5.66 47.84 8.47 47.84 9.74C47.84 10.99 47.80 12.18 47.74 12.18L47.11 12.18C46.89 12.18 46.82 12.19 46.82 12.39C46.82 12.63 46.84 12.68 47.04 12.68C47.24 12.68 47.94 12.64 48.54 12.64C48.96 12.64 49.71 12.68 50.04 12.68C50.20 12.68 50.23 12.61 50.23 12.40C50.23 12.22 50.18 12.18 50.01 12.18L49.28 12.18C49.17 12.18 49.07 8.44 49.07 6.03L49.07 4.77C49.07 4.17 49.10 3.77 49.14 3.70L49.80 3.70C50.02 3.70 50.06 3.68 50.06 3.49C50.06 3.25 50.05 3.19 49.85 3.19C49.53 3.19 48.85 3.23 48.43 3.23L47.75 3.23C47.53 3.23 47.50 3.29 47.39 3.58L44.65 10.72C44.56 10.95 44.53 11.02 44.42 10.74L41.48 3.40C41.41 3.22 41.36 3.19 41.22 3.19C41.13 3.19 40.64 3.23 40.33 3.23C39.83 3.23 38.98 3.19 38.78 3.19C38.64 3.19 38.64 3.26 38.64 3.47C38.64 3.64 38.64 3.70 38.78 3.70L39.48 3.70C39.75 3.70 39.75 3.72 39.75 3.84C39.75 4.82 39.54 9.94 39.49 10.79C39.45 11.55 39.45 12.18 39.40 12.18L38.82 12.18C38.60 12.18 38.53 12.19 38.53 12.39ZM58.13 12.39C58.13 12.63 58.16 12.68 58.35 12.68C58.67 12.68 59.64 12.64 60.06 12.64C60.48 12.64 64.99 12.68 65.31 12.68C65.44 12.68 65.59 12.66 65.59 12.49C65.59 12.07 65.63 11.23 65.63 10.53C65.63 10.39 65.48 10.39 65.35 10.39C65.24 10.39 65.11 10.39 65.11 10.51C65.10 11.06 65.10 11.41 65.07 11.76C65.04 12.01 65.04 12.04 64.95 12.04C64.79 12.04 62.16 12.08 60.66 12.08C60.59 12.08 60.55 10.11 60.51 8.26C60.51 8.06 60.55 8.09 60.69 8.09L62.97 8.09C63.67 8.09 63.70 8.20 63.70 8.30L63.70 9.00C63.70 9.14 63.88 9.14 63.99 9.14C64.09 9.14 64.22 9.13 64.22 9.02C64.22 8.83 64.19 8.33 64.19 7.83C64.19 7.32 64.22 6.83 64.22 6.71C64.22 6.59 64.08 6.58 63.98 6.58C63.87 6.58 63.70 6.59 63.70 6.72L63.70 7.45C63.70 7.62 63.25 7.63 62.97 7.63L60.63 7.63C60.52 7.63 60.51 7.63 60.51 7.45C60.49 6.75 60.48 6.06 60.48 5.46C60.48 5.12 60.48 3.71 60.56 3.71C61.80 3.71 64.30 3.75 64.30 3.81C64.30 3.99 64.26 4.83 64.26 4.89C64.26 5.04 64.33 5.10 64.51 5.10C64.71 5.10 64.78 5.08 64.78 4.94C64.78 3.85 64.83 3.36 64.83 3.09C64.83 2.91 64.75 2.90 64.55 2.90C64.36 2.90 64.36 2.95 64.33 3.11C64.32 3.25 64.39 3.25 63.48 3.25C62.86 3.25 60.72 3.29 59.95 3.29C59.46 3.29 58.52 3.25 58.42 3.25C58.30 3.25 58.24 3.30 58.24 3.49C58.24 3.72 58.31 3.74 58.48 3.74L59.14 3.74C59.19 3.74 59.26 4.79 59.26 5.71C59.26 5.80 59.32 8.27 59.32 9.83L59.32 11.17C59.32 11.84 59.29 12.18 59.26 12.18L58.41 12.18C58.18 12.18 58.13 12.21 58.13 12.39ZM73.60 12.39C73.60 12.63 73.61 12.68 73.81 12.68C73.99 12.68 74.37 12.64 74.98 12.64C75.61 12.64 76.17 12.68 76.50 12.68C76.66 12.68 76.66 12.61 76.66 12.40C76.66 12.24 76.66 12.18 76.50 12.18L75.29 12.18C75.25 12.18 75.24 11.54 75.24 10.79C75.24 9.46 75.25 7.48 75.25 5.99C75.25 5.25 75.25 4.84 75.26 4.28C75.26 4.02 75.33 4.14 75.46 4.28L82.35 12.66C82.43 12.75 82.52 12.89 82.63 12.89C82.74 12.89 82.81 12.77 82.81 12.54C82.81 12.39 82.98 6.65 82.99 4.48C82.99 4.06 83.02 3.70 83.05 3.70L83.68 3.70C83.90 3.70 83.96 3.68 83.96 3.49C83.96 3.25 83.96 3.19 83.76 3.19C83.57 3.19 83.13 3.23 82.57 3.23C81.96 3.23 81.16 3.19 81.06 3.19C80.89 3.19 80.89 3.26 80.89 3.47C80.89 3.64 80.89 3.70 81.06 3.70L82.36 3.70C82.38 3.70 82.38 4.33 82.38 4.44C82.38 5.85 82.40 8.33 82.40 9.70L82.40 10.29C82.40 10.57 82.39 10.65 82.17 10.37L76.48 3.39C76.37 3.25 76.34 3.19 76.17 3.19C76.09 3.19 75.71 3.23 75.40 3.23C75.11 3.23 74.03 3.19 73.84 3.19C73.67 3.19 73.64 3.26 73.64 3.47C73.64 3.64 73.67 3.70 73.84 3.70L74.75 3.70C74.75 4.17 74.70 8.53 74.63 10.79C74.61 11.69 74.62 12.18 74.51 12.18L73.86 12.18C73.64 12.18 73.60 12.19 73.60 12.39ZM101.65 12.39C101.65 12.63 101.70 12.68 101.89 12.68C102.21 12.68 102.97 12.64 103.68 12.64C104.34 12.64 105.14 12.68 105.36 12.68C105.53 12.68 105.56 12.61 105.56 12.40C105.56 12.24 105.53 12.18 105.36 12.18L104.40 12.18C104.30 12.18 104.27 9.55 104.27 7.76L104.27 5.87C104.27 5.14 104.30 3.70 104.40 3.70L105.31 3.70C105.53 3.70 105.56 3.68 105.56 3.49C105.56 3.25 105.53 3.19 105.36 3.19C105.04 3.19 104.37 3.23 103.71 3.23C102.90 3.23 102.19 3.19 101.96 3.19C101.78 3.19 101.71 3.21 101.71 3.44C101.71 3.68 101.79 3.70 101.96 3.70L102.89 3.70C102.93 3.70 103.00 4.79 103.00 5.71L103.00 7.08C103.00 8.92 102.98 12.18 102.87 12.18L101.95 12.18C101.72 12.18 101.65 12.19 101.65 12.39ZM113.46 12.39C113.46 12.63 113.47 12.68 113.67 12.68C113.85 12.68 114.23 12.64 114.84 12.64C115.47 12.64 116.03 12.68 116.35 12.68C116.52 12.68 116.52 12.61 116.52 12.40C116.52 12.24 116.52 12.18 116.35 12.18L115.15 12.18C115.11 12.18 115.09 11.54 115.09 10.79C115.09 9.46 115.11 7.48 115.11 5.99C115.11 5.25 115.11 4.84 115.12 4.28C115.12 4.02 115.19 4.14 115.32 4.28L122.21 12.66C122.29 12.75 122.37 12.89 122.49 12.89C122.60 12.89 122.67 12.77 122.67 12.54C122.67 12.39 122.84 6.65 122.85 4.48C122.85 4.06 122.88 3.70 122.91 3.70L123.54 3.70C123.76 3.70 123.82 3.68 123.82 3.49C123.82 3.25 123.82 3.19 123.62 3.19C123.42 3.19 122.99 3.23 122.43 3.23C121.81 3.23 121.02 3.19 120.92 3.19C120.75 3.19 120.75 3.26 120.75 3.47C120.75 3.64 120.75 3.70 120.92 3.70L122.22 3.70C122.23 3.70 122.23 4.33 122.23 4.44C122.23 5.85 122.26 8.33 122.26 9.70L122.26 10.29C122.26 10.57 122.25 10.65 122.02 10.37L116.34 3.39C116.23 3.25 116.20 3.19 116.03 3.19C115.95 3.19 115.57 3.23 115.26 3.23C114.97 3.23 113.89 3.19 113.69 3.19C113.53 3.19 113.50 3.26 113.50 3.47C113.50 3.64 113.53 3.70 113.69 3.70L114.60 3.70C114.60 4.17 114.56 8.53 114.49 10.79C114.46 11.69 114.48 12.18 114.37 12.18L113.72 12.18C113.50 12.18 113.46 12.19 113.46 12.39ZM141.39 5.01C141.39 5.17 141.57 5.17 141.69 5.17C141.85 5.17 141.89 5.15 141.90 4.97L142.02 3.89C142.03 3.81 142.58 3.75 143.33 3.75L145.32 3.75C145.38 3.75 145.40 4.35 145.40 4.97C145.40 6.43 145.35 12.18 145.22 12.18L144.35 12.18C144.13 12.18 144.09 12.19 144.09 12.39C144.09 12.63 144.10 12.68 144.30 12.68C144.62 12.68 145.60 12.64 146.02 12.64C146.44 12.64 147.38 12.68 147.70 12.68C147.87 12.68 147.90 12.61 147.90 12.40C147.90 12.24 147.87 12.18 147.70 12.18L146.71 12.18C146.68 12.18 146.68 11.76 146.68 11.31C146.68 9.56 146.76 5.96 146.76 5.92C146.78 5.18 146.78 3.75 146.87 3.75L148.48 3.75C149.20 3.75 150.02 3.78 150.02 3.85C150.02 3.99 149.98 4.90 149.98 4.97C149.98 5.12 150.05 5.17 150.23 5.17C150.43 5.17 150.50 5.17 150.50 5.03C150.50 3.93 150.56 3.40 150.56 3.14C150.56 2.94 150.47 2.94 150.28 2.94C150.12 2.94 150.07 2.98 150.05 3.16C150.05 3.23 149.41 3.28 148.57 3.28L143.57 3.28C142.91 3.28 142.10 3.28 142.10 3.21L142.10 3.07C142.10 2.94 141.97 2.94 141.88 2.94C141.65 2.94 141.62 3.00 141.61 3.19C141.55 3.89 141.39 4.97 141.39 5.01ZM158.31 12.39C158.31 12.63 158.34 12.68 158.54 12.68C158.86 12.68 159.82 12.64 160.24 12.64C160.66 12.64 165.17 12.68 165.49 12.68C165.62 12.68 165.77 12.66 165.77 12.49C165.77 12.07 165.82 11.23 165.82 10.53C165.82 10.39 165.66 10.39 165.54 10.39C165.42 10.39 165.30 10.39 165.30 10.51C165.28 11.06 165.28 11.41 165.26 11.76C165.23 12.01 165.23 12.04 165.13 12.04C164.98 12.04 162.34 12.08 160.85 12.08C160.78 12.08 160.73 10.11 160.69 8.26C160.69 8.06 160.73 8.09 160.87 8.09L163.16 8.09C163.86 8.09 163.88 8.20 163.88 8.30L163.88 9.00C163.88 9.14 164.07 9.14 164.18 9.14C164.28 9.14 164.40 9.13 164.40 9.02C164.40 8.83 164.37 8.33 164.37 7.83C164.37 7.32 164.40 6.83 164.40 6.71C164.40 6.59 164.26 6.58 164.16 6.58C164.05 6.58 163.88 6.59 163.88 6.72L163.88 7.45C163.88 7.62 163.44 7.63 163.16 7.63L160.82 7.63C160.71 7.63 160.69 7.63 160.69 7.45C160.68 6.75 160.66 6.06 160.66 5.46C160.66 5.12 160.66 3.71 160.75 3.71C161.98 3.71 164.49 3.75 164.49 3.81C164.49 3.99 164.44 4.83 164.44 4.89C164.44 5.04 164.51 5.10 164.70 5.10C164.89 5.10 164.96 5.08 164.96 4.94C164.96 3.85 165.02 3.36 165.02 3.09C165.02 2.91 164.93 2.90 164.74 2.90C164.54 2.90 164.54 2.95 164.51 3.11C164.50 3.25 164.57 3.25 163.66 3.25C163.04 3.25 160.90 3.29 160.13 3.29C159.64 3.29 158.70 3.25 158.61 3.25C158.48 3.25 158.42 3.30 158.42 3.49C158.42 3.72 158.49 3.74 158.66 3.74L159.32 3.74C159.38 3.74 159.45 4.79 159.45 5.71C159.45 5.80 159.50 8.27 159.50 9.83L159.50 11.17C159.50 11.84 159.47 12.18 159.45 12.18L158.59 12.18C158.37 12.18 158.31 12.21 158.31 12.39ZM173.85 7.91C173.85 11.31 176.22 12.87 178.81 12.87C180.59 12.87 182.36 11.90 182.41 11.59C182.57 10.29 182.63 9.70 182.63 9.66C182.63 9.56 182.59 9.52 182.42 9.51C182.36 9.51 182.31 9.49 182.27 9.49C182.15 9.49 182.10 9.53 182.07 9.70L181.89 11.33C181.87 11.45 180.77 12.24 179.20 12.24C177.07 12.24 175.36 10.29 175.36 7.94C175.36 5.42 176.79 3.54 178.79 3.54C180.64 3.54 181.99 5.01 181.99 5.17C181.99 5.29 181.93 6.40 181.93 6.45C181.93 6.59 181.97 6.64 182.24 6.64C182.43 6.64 182.50 6.62 182.50 6.44C182.50 5.73 182.56 3.92 182.56 3.67C182.56 3.47 182.45 3.44 182.24 3.44C182.01 3.44 181.99 3.50 181.99 3.67L181.99 4.05C181.99 4.16 181.94 4.16 181.82 4.06C181.54 3.86 180.56 3.04 178.89 3.04C176.05 3.04 173.85 4.96 173.85 7.91ZM191.02 12.39C191.02 12.63 191.02 12.68 191.21 12.68C191.53 12.68 192.47 12.64 192.89 12.64C193.31 12.64 194.14 12.68 194.46 12.68C194.63 12.68 194.63 12.61 194.63 12.40C194.63 12.24 194.63 12.18 194.46 12.18L193.54 12.18C193.45 12.18 193.41 9.93 193.41 8.20C193.41 8.01 193.41 8.01 193.54 8.01L198.77 8.01C198.84 8.01 198.86 8.01 198.86 8.18L198.86 9.91C198.86 11.05 198.84 12.18 198.79 12.18L198.02 12.18C197.79 12.18 197.75 12.19 197.75 12.39C197.75 12.63 197.76 12.68 197.96 12.68C198.28 12.68 199.12 12.64 199.54 12.64C199.96 12.64 200.55 12.68 200.87 12.68C201.04 12.68 201.05 12.61 201.05 12.40C201.05 12.24 201.04 12.18 200.87 12.18L200.13 12.18C200.09 12.18 200.07 9.27 200.07 7.04C200.07 5.40 200.07 3.70 200.12 3.70L200.73 3.70C200.96 3.70 201.00 3.68 201.00 3.49C201.00 3.25 200.98 3.19 200.79 3.19C200.65 3.19 200.02 3.23 199.43 3.23C198.76 3.23 198.16 3.19 197.93 3.19C197.74 3.19 197.71 3.22 197.71 3.44C197.71 3.67 197.78 3.70 197.95 3.70L198.74 3.70C198.80 3.70 198.86 4.79 198.86 5.71L198.86 7.42C198.86 7.59 198.86 7.59 198.69 7.59L193.58 7.59C193.41 7.59 193.41 7.59 193.41 7.38C193.41 6.96 193.40 6.23 193.40 5.53C193.40 4.66 193.41 3.70 193.47 3.70L194.24 3.70C194.46 3.70 194.50 3.68 194.50 3.49C194.50 3.25 194.49 3.19 194.29 3.19C193.97 3.19 193.38 3.23 192.78 3.23C192.19 3.23 191.70 3.19 191.48 3.19C191.30 3.19 191.20 3.21 191.20 3.44C191.20 3.68 191.31 3.70 191.48 3.70L192.09 3.70C192.15 3.70 192.16 5.59 192.16 7.18L192.16 8.61C192.16 10.08 192.15 12.18 192.08 12.18L191.27 12.18C191.04 12.18 191.02 12.19 191.02 12.39Z"></path></g></svg>