<svg data-v-423bf9ae="" xmlns="http://www.w3.org/2000/svg" viewBox="0 0 145.89795587699354 181" class="iconAboveSlogan"><!----><!----><!----><g data-v-423bf9ae="" id="b1770a60-5731-4a3e-8518-6bce58d06d63" fill="white" transform="matrix(6.1224488604322,0,0,6.1224488604322,-6.244898665800378,78.81632837828175)"><path d="M7.60 10.75L7.60 12.17L1.02 9.51L1.02 8.30L7.60 5.63L7.60 7.04L2.93 8.89L7.60 10.75ZM13.65 13.75L12.22 13.75L12.22 5.32L9.38 5.32L9.38 3.95L16.49 3.95L16.49 5.32L13.65 5.32L13.65 13.75ZM24.85 8.26L24.85 9.46L18.27 12.14L18.27 10.72L22.96 8.86L18.27 7.00L18.27 5.59L24.85 8.26Z"></path></g><!----><g data-v-423bf9ae="" id="012d73b7-838f-4283-8ab5-bb5f56f97f16" transform="matrix(2.5492861381615373,0,0,2.5492861381615373,8.927003551240603,-18.923306272952686)" stroke="none" fill="white"><path d="M33.771 34H15.199l9.287-19.948z"></path><path d="M41.891 34H28.852l6.808-15.611zM20.12 34H7.659l5.652-15.611z"></path><path d="M42.711 34H37.76l8.42-9.251zM12.865 34H7.441l-3.47-9.251z"></path><circle cx="24.498" cy="10.009" r="2.313"></circle><circle cx="3.244" cy="21.284" r="2.024"></circle><circle cx="47.196" cy="21.433" r="2.024"></circle><g><path d="M9.836 43h30.189l2.041-7H7.796z"></path></g></g><!----><g data-v-423bf9ae="" id="cd00ce1b-1aac-4a01-b4f4-9279686067cf" fill="white" transform="matrix(0.5995806405903844,0,0,0.5995806405903844,18.412396548499075,204.9130474716116)"><path d="M1.15 6.34L0.31 6.15L0.36 5.89L3.05 5.89L3.03 6.11L1.90 6.32L3.86 13.18L5.90 6.18L6.21 6.14L8.15 13.18L10.36 6.36L9.08 6.13L9.12 5.89L11.74 5.89L11.72 6.14L10.91 6.34L8.22 14.49L7.77 14.57L5.94 7.63L3.92 14.49L3.44 14.57L1.15 6.34ZM20.21 9.75L20.21 9.75L20.21 9.75Q20.21 11.03 20.58 12.01L20.58 12.01L20.58 12.01Q20.94 13.00 21.66 13.57L21.66 13.57L21.66 13.57Q22.37 14.14 23.35 14.14L23.35 14.14L23.35 14.14Q23.93 14.14 24.42 13.92L24.42 13.92L24.42 13.92Q24.91 13.70 25.26 13.33L25.26 13.33L25.26 13.33Q25.60 12.96 25.84 12.49L25.84 12.49L25.84 12.49Q26.09 12.01 26.20 11.50L26.20 11.50L26.20 11.50Q26.32 10.99 26.32 10.48L26.32 10.48L26.32 10.48Q26.32 8.50 25.47 7.29L25.47 7.29L25.47 7.29Q24.62 6.07 23.17 6.07L23.17 6.07L23.17 6.07Q22.59 6.07 22.09 6.28L22.09 6.28L22.09 6.28Q21.60 6.49 21.26 6.85L21.26 6.85L21.26 6.85Q20.92 7.21 20.68 7.69L20.68 7.69L20.68 7.69Q20.44 8.16 20.33 8.69L20.33 8.69L20.33 8.69Q20.21 9.21 20.21 9.75ZM19.46 10.16L19.46 10.16L19.46 10.16Q19.46 8.16 20.56 6.92L20.56 6.92L20.56 6.92Q21.66 5.69 23.50 5.69L23.50 5.69L23.50 5.69Q24.63 5.69 25.45 6.27L25.45 6.27L25.45 6.27Q26.26 6.86 26.66 7.84L26.66 7.84L26.66 7.84Q27.06 8.83 27.06 10.11L27.06 10.11L27.06 10.11Q27.06 10.75 26.91 11.38L26.91 11.38L26.91 11.38Q26.76 12.00 26.43 12.58L26.43 12.58L26.43 12.58Q26.11 13.17 25.65 13.61L25.65 13.61L25.65 13.61Q25.18 14.05 24.51 14.32L24.51 14.32L24.51 14.32Q23.83 14.58 23.02 14.58L23.02 14.58L23.02 14.58Q21.97 14.58 21.15 13.98L21.15 13.98L21.15 13.98Q20.32 13.37 19.89 12.37L19.89 12.37L19.89 12.37Q19.46 11.37 19.46 10.16ZM37.58 14.40L34.75 14.40L34.79 14.17L35.93 13.96L36.50 6.36L35.24 6.14L35.29 5.89L37.47 5.89L37.95 7.18L40.10 12.84L42.55 6.88L42.96 5.89L45.19 5.89L45.16 6.14L43.98 6.34L44.36 14.01L45.59 14.12L45.58 14.40L42.42 14.40L42.46 14.17L43.63 13.96L43.24 6.41L40.06 13.99L39.72 14.05L36.93 6.53L36.39 14.01L37.63 14.12L37.58 14.40ZM54.51 6.36L53.29 6.18L53.33 5.89L59.53 5.89L59.32 8.07L59.00 8.03L58.87 6.24L55.22 6.24L55.22 9.89L57.51 9.89L57.76 8.94L58.13 8.89L57.91 11.55L57.56 11.61L57.45 10.26L55.22 10.26L55.22 14.03L59.06 14.03L59.57 12.19L59.85 12.26L59.64 14.40L53.31 14.40L53.35 14.11L54.51 13.90L54.51 6.36ZM68.80 6.36L67.54 6.14L67.59 5.89L69.67 5.89L74.39 13.17L74.39 6.33L73.14 6.16L73.18 5.89L76.08 5.89L76.02 6.16L74.89 6.32L74.89 14.44L74.52 14.52L69.31 6.65L69.31 13.95L70.57 14.08L70.50 14.40L67.62 14.40L67.66 14.11L68.80 13.90L68.80 6.36ZM94.83 6.33L93.65 6.16L93.69 5.89L96.82 5.89L96.77 6.16L95.57 6.32L95.57 13.95L96.89 14.08L96.83 14.40L93.72 14.40L93.75 14.11L94.83 13.90L94.83 6.33ZM105.85 6.36L104.58 6.14L104.64 5.89L106.71 5.89L111.43 13.17L111.43 6.33L110.18 6.16L110.22 5.89L113.12 5.89L113.07 6.16L111.93 6.32L111.93 14.44L111.56 14.52L106.35 6.65L106.35 13.95L107.61 14.08L107.54 14.40L104.67 14.40L104.71 14.11L105.85 13.90L105.85 6.36ZM130.78 8.09L130.71 5.89L137.77 5.89L137.53 8.16L137.19 8.12L137.07 6.24L134.54 6.24L134.54 13.90L135.75 14.08L135.67 14.40L132.58 14.40L132.61 14.11L133.81 13.90L133.81 6.24L131.37 6.24L131.13 8.15L130.78 8.09ZM146.71 6.36L145.48 6.18L145.53 5.89L151.72 5.89L151.51 8.07L151.20 8.03L151.07 6.24L147.42 6.24L147.42 9.89L149.71 9.89L149.96 8.94L150.33 8.89L150.10 11.55L149.75 11.61L149.65 10.26L147.42 10.26L147.42 14.03L151.26 14.03L151.76 12.19L152.04 12.26L151.84 14.40L145.50 14.40L145.54 14.11L146.71 13.90L146.71 6.36ZM159.78 10.25L159.78 10.25L159.78 10.25Q159.78 9.73 159.89 9.21L159.89 9.21L159.89 9.21Q160.00 8.68 160.20 8.17L160.20 8.17L160.20 8.17Q160.40 7.66 160.73 7.22L160.73 7.22L160.73 7.22Q161.05 6.77 161.47 6.44L161.47 6.44L161.47 6.44Q161.88 6.10 162.44 5.90L162.44 5.90L162.44 5.90Q163.00 5.71 163.63 5.71L163.63 5.71L163.63 5.71Q165.05 5.71 165.96 6.39L165.96 6.39L165.74 8.70L165.42 8.64L165.22 6.87L165.22 6.87Q164.62 6.09 163.31 6.09L163.31 6.09L163.31 6.09Q162.16 6.09 161.33 7.19L161.33 7.19L161.33 7.19Q160.51 8.30 160.51 10.00L160.51 10.00L160.51 10.00Q160.51 11.92 161.31 12.97L161.31 12.97L161.31 12.97Q162.11 14.03 163.59 14.03L163.59 14.03L163.59 14.03Q164.32 14.03 165.01 13.65L165.01 13.65L165.01 13.65Q165.70 13.28 166.17 12.74L166.17 12.74L166.33 12.99L166.33 12.99Q166.16 13.25 165.87 13.51L165.87 13.51L165.87 13.51Q165.59 13.77 165.20 14.02L165.20 14.02L165.20 14.02Q164.81 14.27 164.31 14.42L164.31 14.42L164.31 14.42Q163.80 14.57 163.28 14.57L163.28 14.57L163.28 14.57Q161.70 14.57 160.74 13.40L160.74 13.40L160.74 13.40Q159.78 12.22 159.78 10.25ZM175.23 6.33L174.00 6.16L174.02 5.89L177.14 5.89L177.11 6.16L175.95 6.32L175.95 9.95L180.86 9.95L180.86 6.33L179.60 6.16L179.65 5.89L182.76 5.89L182.70 6.16L181.56 6.32L181.56 13.95L182.81 14.08L182.77 14.40L179.67 14.40L179.72 14.11L180.86 13.90L180.86 10.36L175.95 10.36L175.95 13.95L177.22 14.08L177.15 14.40L174.06 14.40L174.09 14.11L175.23 13.90L175.23 6.33Z"></path></g></svg>