<svg data-v-fde0c5aa="" xmlns="http://www.w3.org/2000/svg" viewBox="0 0 300 300" class="font"><!----><defs data-v-fde0c5aa=""><!----></defs><rect data-v-fde0c5aa="" fill="transparent" x="0" y="0" width="300px" height="300px" class="logo-background-square"></rect><defs data-v-fde0c5aa=""><!----></defs><g data-v-fde0c5aa="" id="a3cc308f-9a4f-4544-bda0-b5f3eb1f3876" fill="#000000" transform="matrix(9.232060457589187,0,0,9.232060457589187,30.58329850934661,68.29626362967886)"><path d="M7.60 10.75L7.60 12.17L1.02 9.51L1.02 8.30L7.60 5.63L7.60 7.04L2.93 8.89L7.60 10.75ZM13.65 13.75L12.22 13.75L12.22 5.32L9.38 5.32L9.38 3.95L16.49 3.95L16.49 5.32L13.65 5.32L13.65 13.75ZM24.85 8.26L24.85 9.46L18.27 12.14L18.27 10.72L22.96 8.86L18.27 7.00L18.27 5.59L24.85 8.26Z"></path></g><!----><!----></svg>